<svg id="Layer_1" data-name="Layer 1" xmlns="http://www.w3.org/2000/svg" viewBox="0 0 792 499.03"><defs><style>.cls-1{fill:#1d1d1b;}.cls-2{fill:#fff;}</style></defs><rect class="cls-1" x="-1.81" width="793.81" height="499.03"/><path class="cls-2" d="M16.23,471.93,7,492.66h4.91l1.83-4.44h9.63l1.83,4.44h5L21,471.93Zm-.94,12.65,3.28-7.94,3.29,7.94Z"/><path class="cls-2" d="M40.38,476.49a7.29,7.29,0,0,1,3.52-.83A7.1,7.1,0,0,1,49.25,478l3.08-2.84a9.76,9.76,0,0,0-3.73-2.67,12.83,12.83,0,0,0-4.94-.92A12.33,12.33,0,0,0,37.8,473a10.2,10.2,0,0,0-4.07,3.82,11.18,11.18,0,0,0,0,11.05,10.25,10.25,0,0,0,4,3.82,12.09,12.09,0,0,0,5.8,1.38,15,15,0,0,0,4.47-.69,12.31,12.31,0,0,0,3.9-1.95V482H47.57V488a7.82,7.82,0,0,1-3.73.89,7,7,0,0,1-3.48-.85A6,6,0,0,1,38,485.73a6.85,6.85,0,0,1-.86-3.43,6.92,6.92,0,0,1,.86-3.47,5.88,5.88,0,0,1,2.4-2.34"/><polygon class="cls-2" points="62.63 484.01 72.24 484.01 72.24 480.28 62.63 480.28 62.63 475.78 73.51 475.78 73.51 471.93 57.86 471.93 57.86 492.66 73.9 492.66 73.9 488.81 62.63 488.81 62.63 484.01"/><polygon class="cls-2" points="93.45 484.52 83.16 471.93 79.19 471.93 79.19 492.66 83.93 492.66 83.93 480.07 94.25 492.66 98.19 492.66 98.19 471.93 93.45 471.93 93.45 484.52"/><path class="cls-2" d="M111.3,476.5a6.92,6.92,0,0,1,3.43-.84,6.58,6.58,0,0,1,5.2,2.43l3.08-2.84a9.7,9.7,0,0,0-3.65-2.73,12.07,12.07,0,0,0-4.86-.95,11.91,11.91,0,0,0-5.76,1.38,10.2,10.2,0,0,0-4,3.82,11.12,11.12,0,0,0,0,11.05,10.2,10.2,0,0,0,4,3.82,11.83,11.83,0,0,0,5.72,1.38,12.17,12.17,0,0,0,4.88-.95,9.49,9.49,0,0,0,3.67-2.76l-3.08-2.84a6.55,6.55,0,0,1-5.2,2.46,6.92,6.92,0,0,1-3.43-.84,6,6,0,0,1-2.35-2.36,7.37,7.37,0,0,1,0-6.87,6,6,0,0,1,2.35-2.36"/><rect class="cls-2" x="127.72" y="471.93" width="4.8" height="20.73"/><path class="cls-2" d="M145.41,471.93l-9.23,20.73h4.91l1.83-4.44h9.62l1.83,4.44h5l-9.25-20.73Zm-.94,12.65,3.28-7.94,3.28,7.94Z"/><polygon class="cls-2" points="187.16 484.52 176.86 471.93 172.9 471.93 172.9 492.66 177.63 492.66 177.63 480.07 187.96 492.66 191.89 492.66 191.89 471.93 187.16 471.93 187.16 484.52"/><path class="cls-2" d="M204.76,471.93l-9.23,20.73h4.91l1.84-4.44h9.61l1.84,4.44h5l-9.26-20.73Zm-.95,12.65,3.29-7.94,3.29,7.94Z"/><path class="cls-2" d="M228.85,476.5a6.92,6.92,0,0,1,3.43-.84,6.62,6.62,0,0,1,5.21,2.43l3.07-2.84a9.62,9.62,0,0,0-3.65-2.73,12.09,12.09,0,0,0-4.87-.95,11.89,11.89,0,0,0-5.75,1.38,10.29,10.29,0,0,0-4,3.82,11.18,11.18,0,0,0,0,11.05,10.29,10.29,0,0,0,4,3.82A11.84,11.84,0,0,0,232,493a12.21,12.21,0,0,0,4.88-.95,9.45,9.45,0,0,0,3.66-2.76l-3.07-2.84a6.59,6.59,0,0,1-5.21,2.46,6.92,6.92,0,0,1-3.43-.84,6.08,6.08,0,0,1-2.36-2.36,7.44,7.44,0,0,1,0-6.87,6.08,6.08,0,0,1,2.36-2.36"/><rect class="cls-2" x="245.27" y="471.93" width="4.79" height="20.73"/><path class="cls-2" d="M272.28,473a12.82,12.82,0,0,0-11.61,0,10.26,10.26,0,0,0-4.05,3.84,11,11,0,0,0,0,11,10.17,10.17,0,0,0,4.05,3.83,12.74,12.74,0,0,0,11.61,0,10.59,10.59,0,0,0,0-18.66m-.16,12.77a6,6,0,0,1-2.33,2.35,6.87,6.87,0,0,1-6.62,0,6,6,0,0,1-2.32-2.35,7.37,7.37,0,0,1,0-6.87,6.05,6.05,0,0,1,2.32-2.36,6.94,6.94,0,0,1,6.62,0,6.08,6.08,0,0,1,2.33,2.36,7.44,7.44,0,0,1,0,6.87"/><polygon class="cls-2" points="297.17 484.52 286.87 471.93 282.9 471.93 282.9 492.66 287.64 492.66 287.64 480.07 297.96 492.66 301.9 492.66 301.9 471.93 297.17 471.93 297.17 484.52"/><path class="cls-2" d="M314.77,471.93l-9.23,20.73h4.91l1.83-4.44h9.62l1.83,4.44h5l-9.26-20.73Zm-.95,12.65,3.29-7.94,3.28,7.94Z"/><polygon class="cls-2" points="337.19 471.93 332.4 471.93 332.4 492.66 347.58 492.66 347.58 488.75 337.19 488.75 337.19 471.93"/><path class="cls-2" d="M377,473.22a13.24,13.24,0,0,0-6-1.29h-9.4v20.73H371a13.24,13.24,0,0,0,6-1.29,9.56,9.56,0,0,0,4-3.63,11.08,11.08,0,0,0,0-10.89,9.56,9.56,0,0,0-4-3.63M375.73,487a7,7,0,0,1-5,1.73H366.4V475.87h4.38a7,7,0,0,1,5,1.73,6.88,6.88,0,0,1,0,9.39"/><polygon class="cls-2" points="392.29 484.01 401.9 484.01 401.9 480.28 392.29 480.28 392.29 475.78 403.18 475.78 403.18 471.93 387.52 471.93 387.52 492.66 403.56 492.66 403.56 488.81 392.29 488.81 392.29 484.01"/><path class="cls-2" d="M425.22,471.93,416,492.66h4.91l1.84-4.44h9.61l1.84,4.44h5L430,471.93Zm-1,12.65,3.29-7.94,3.28,7.94Z"/><path class="cls-2" d="M458.22,473.22a13.17,13.17,0,0,0-6-1.29h-9.41v20.73h9.41a13.17,13.17,0,0,0,6-1.29,9.53,9.53,0,0,0,4-3.63,11.08,11.08,0,0,0,0-10.89,9.53,9.53,0,0,0-4-3.63M457,487a7,7,0,0,1-5,1.73h-4.38V475.87H452a7,7,0,0,1,5,1.73,6.88,6.88,0,0,1,0,9.39"/><path class="cls-2" d="M482.62,483.36a6.27,6.27,0,0,1-1.19,4.22,4.3,4.3,0,0,1-3.43,1.35c-3.08,0-4.61-1.86-4.61-5.57V471.93h-4.8v11.61c0,3,.83,5.38,2.47,7a10.93,10.93,0,0,0,13.82,0q2.47-2.46,2.47-7V471.93h-4.73Z"/><path class="cls-2" d="M499.63,471.93l-9.23,20.73h4.91l1.83-4.44h9.62l1.84,4.44h5l-9.26-20.73Zm-.94,12.65,3.28-7.94,3.28,7.94Z"/><polygon class="cls-2" points="531.53 484.52 521.23 471.93 517.26 471.93 517.26 492.66 522 492.66 522 480.07 532.33 492.66 536.26 492.66 536.26 471.93 531.53 471.93 531.53 484.52"/><path class="cls-2" d="M549.13,471.93l-9.23,20.73h4.91l1.83-4.44h9.63l1.83,4.44h5l-9.26-20.73Zm-1,12.65,3.29-7.94,3.28,7.94Z"/><path class="cls-2" d="M578.69,481.52a34.06,34.06,0,0,0-3.88-1.12,18,18,0,0,1-3.38-1,1.68,1.68,0,0,1-1.11-1.59,2,2,0,0,1,.95-1.72,5.47,5.47,0,0,1,3-.65,11.53,11.53,0,0,1,5.74,1.63l1.48-3.64a11.68,11.68,0,0,0-3.31-1.37,16.22,16.22,0,0,0-3.88-.47,12,12,0,0,0-4.81.86,6.59,6.59,0,0,0-2.94,2.32,5.82,5.82,0,0,0-1,3.28,4.89,4.89,0,0,0,1.08,3.32,6.21,6.21,0,0,0,2.59,1.8,34.2,34.2,0,0,0,3.87,1.13c1,.24,1.84.46,2.45.65a4.42,4.42,0,0,1,1.48.79,1.54,1.54,0,0,1,.57,1.23,1.82,1.82,0,0,1-1,1.61,5.91,5.91,0,0,1-3,.61,12,12,0,0,1-3.67-.59,11.06,11.06,0,0,1-3.17-1.58l-1.62,3.62a11,11,0,0,0,3.68,1.73,16.73,16.73,0,0,0,4.75.67,12.11,12.11,0,0,0,4.82-.86,6.66,6.66,0,0,0,3-2.33,5.63,5.63,0,0,0,1-3.24,4.78,4.78,0,0,0-1.08-3.29,6.45,6.45,0,0,0-2.59-1.78"/><path class="cls-2" d="M612.34,473.22a13.17,13.17,0,0,0-6-1.29H597v20.73h9.41a13.17,13.17,0,0,0,6-1.29,9.53,9.53,0,0,0,4-3.63,11.08,11.08,0,0,0,0-10.89,9.53,9.53,0,0,0-4-3.63M611.1,487a7,7,0,0,1-5,1.73h-4.37V475.87h4.37a7,7,0,0,1,5,1.73,6.88,6.88,0,0,1,0,9.39"/><polygon class="cls-2" points="627.65 484.01 637.27 484.01 637.27 480.28 627.65 480.28 627.65 475.78 638.54 475.78 638.54 471.93 622.89 471.93 622.89 492.66 638.93 492.66 638.93 488.81 627.65 488.81 627.65 484.01"/><polygon class="cls-2" points="673.43 471.93 665.79 484.81 658.04 471.93 654.08 471.93 654.08 492.66 658.57 492.66 658.57 480.49 664.64 490.47 666.8 490.47 672.89 480.22 672.92 492.66 677.42 492.66 677.36 471.93 673.43 471.93"/><polygon class="cls-2" points="692.57 470.24 697.92 465.98 692.96 465.98 688.96 470.24 692.57 470.24"/><polygon class="cls-2" points="688.57 484.01 698.19 484.01 698.19 480.28 688.57 480.28 688.57 475.78 699.47 475.78 699.47 471.93 683.82 471.93 683.82 492.66 699.85 492.66 699.85 488.81 688.57 488.81 688.57 484.01"/><polygon class="cls-2" points="723.02 471.93 717.84 471.93 713.16 478.65 708.4 471.93 702.96 471.93 710.23 482.12 702.57 492.66 708.07 492.66 712.98 485.46 717.99 492.66 723.52 492.66 715.8 481.94 723.02 471.93"/><rect class="cls-2" x="726.89" y="471.93" width="4.79" height="20.73"/><path class="cls-2" d="M744.82,476.5a6.94,6.94,0,0,1,3.43-.84,6.6,6.6,0,0,1,5.21,2.43l3.08-2.84a9.78,9.78,0,0,0-3.65-2.73,12.16,12.16,0,0,0-4.87-.95,11.93,11.93,0,0,0-5.76,1.38,10.26,10.26,0,0,0-4,3.82,11.12,11.12,0,0,0,0,11.05,10.26,10.26,0,0,0,4,3.82A11.86,11.86,0,0,0,748,493a12.22,12.22,0,0,0,4.89-.95,9.56,9.56,0,0,0,3.67-2.76l-3.08-2.84a6.57,6.57,0,0,1-5.21,2.46,6.94,6.94,0,0,1-3.43-.84,6,6,0,0,1-2.35-2.36,7.44,7.44,0,0,1,0-6.87,6,6,0,0,1,2.35-2.36"/><path class="cls-2" d="M780.68,476.8a10.49,10.49,0,0,0-4.06-3.84,12.8,12.8,0,0,0-11.6,0A10.36,10.36,0,0,0,761,476.8a11.07,11.07,0,0,0,0,11,10.26,10.26,0,0,0,4.06,3.83,12.71,12.71,0,0,0,11.6,0,10.72,10.72,0,0,0,4.06-14.82m-4.21,8.93a6.05,6.05,0,0,1-2.33,2.35,6.89,6.89,0,0,1-6.63,0,6,6,0,0,1-2.32-2.35,7.37,7.37,0,0,1,0-6.87,6.05,6.05,0,0,1,2.32-2.36,7,7,0,0,1,6.63,0,6.14,6.14,0,0,1,2.33,2.36,7.44,7.44,0,0,1,0,6.87"/><path class="cls-2" d="M117,416.19c-7.26-18.69-18.52-48.8-28.07-74.77-2.28-6.42-4.13-11.42-5.28-16-6.41.15-17.38.86-24.08,1.71l-4.13,14c-9.26,25.1-19,51.65-28.65,75.05l-11.54,3.7L16.64,427H55.83l1.57-7.14L43,416.19c2.28-6.85,4.56-14.27,7.12-21.69l38.49-.71c2.85,8.41,5.55,16,8,22.4l-14.26,3.7L83.91,427h43.33l1.42-7.14ZM53.56,383.37c4.84-14.84,10-30,15.1-44.37,5.85,15.41,11.4,30.82,16.39,44.8Z"/><path class="cls-2" d="M149.05,416.19l-12.83,3.7,1.57,7.14h20.53c8.69,0,20.66,1.14,30.06,1.14,27.23,0,49.46-17.12,49.46-51.36,0-26.83-13.68-50.51-53.16-50.51-7,0-22.37.85-27.37.85H137.79l-1.57,7.14c4.71,1.28,11.26,3,12.55,4.71,1.13,1.57,1.13,16,1.13,24.82v25.69c0,7.12-.42,24.25-.85,26.68m19.38-51.51c0-7.13.43-23.69.86-26.54a88.55,88.55,0,0,1,14-1c9.27,0,16.54,1.86,22.38,5.42,6.56,5.42,12.83,18,12.83,34.25-.29,19.4-6.84,32.67-18.67,38.95-10.12,3.85-28.08,1.42-30.22-.72-1.14-2.42-1.14-16.12-1.14-24.68Z"/><path class="cls-2" d="M343.88,385.22c0-24,.29-37.38.71-47.08l13.4-3.85-1.57-7.13h-39l-1.57,7.13c4.83,1.29,12.11,3.14,13.68,4.42,1,2.42,1,17.27,1,30.53,0,16-.14,28.83-3.27,38.38-3.71,5-11.55,8.85-21.38,8.85-19.53,0-26.51-12.56-26.51-35.81V364.54c0-7,.57-24.11,1-26.54l13-3.71-1.57-7.13H248.25l-1.56,7.13c4.56,1.29,11,3,12.25,4.85s1.42,16.84,1.42,25.4v15.69c0,32.81,13.4,49.08,41.62,49.08,25.37,0,41.9-14.55,41.9-44.09"/><path class="cls-2" d="M416.67,427H460l1.43-7.14-11.69-3.7c-7.26-18.69-18.52-48.8-28.07-74.77-2.28-6.42-4.13-11.42-5.28-16-6.41.15-17.38.86-24.08,1.71l-4.14,14c-9.26,25.1-19,51.65-28.64,75.05L348,419.89,349.4,427h39.19l1.57-7.14-14.39-3.7c2.28-6.85,4.56-14.27,7.12-21.69l38.49-.71c2.84,8.41,5.55,16,8,22.4l-14.26,3.7Zm-30.35-43.66c4.84-14.84,10-30,15.1-44.37,5.85,15.41,11.4,30.82,16.39,44.8Z"/><path class="cls-2" d="M578.72,334.29l-1.56-7.13H536.54L535,334.29c5.56,1.42,13.82,3.14,15,5,1.56,2.56,2.28,29.95,2.42,59.35-20.24-25.4-44.47-55.65-54.31-71.91-8.26.14-18.66.43-27.65.43L469,334.29c4.42,1.42,10.12,3.42,12.39,5.13,1.44,2,1.58,14,1.72,38.24,0,20.69-.43,33.67-1,38.53l-12.68,3.71,1.42,7.13h40.91l1.42-7.13c-6.41-1.43-14.82-3-16.25-5-1.42-2.57-2-33.1-2.28-58.64,13.12,16.27,29.5,36.67,42.62,54.22l12.82,17.12,14-1.43c0-43.08.72-76.9,1.86-88Z"/><path class="cls-2" d="M691.61,419.89l-11.69-3.7c-7.27-18.69-18.53-48.8-28.08-74.77-2.28-6.42-4.13-11.42-5.27-16-6.42.15-17.39.86-24.09,1.71l-4.13,14c-9.26,25.1-19,51.65-28.65,75.05l-11.54,3.7,1.42,7.14h39.2l1.57-7.14-14.4-3.7c2.28-6.85,4.56-14.27,7.12-21.69l38.49-.71c2.85,8.41,5.55,16,8,22.4l-14.25,3.7,1.56,7.14h43.33ZM616.5,383.37c4.84-14.84,10-30,15.1-44.37,5.85,15.41,11.41,30.82,16.39,44.8Z"/><path class="cls-2" d="M703.87,420.47a79.4,79.4,0,0,0,35.06,8.7c23.23,0,37.76-11.28,37.76-28,0-32.68-53.58-26.4-53.58-50.23a18.66,18.66,0,0,1,3.13-10.27c3.28-2.42,8.84-4,14.82-4,6.7,0,12.4,1.58,15.83,4,.85,3.85,1.7,9.41,2.56,17.12a80.91,80.91,0,0,0,11.69.43c1-4.71,3-15.27,4-21.69l-2.14-4C765.58,328,755,325,742.78,325c-21.24,0-38.49,12.13-38.49,29.82,0,33.82,53,27,53,49.37a17.37,17.37,0,0,1-3.42,10.7c-3.71,1.86-8,2.86-14.67,2.86-7.28,0-15.54-2-19.39-4.72-1.14-4.42-2.14-8.69-3.42-15.69a93.31,93.31,0,0,0-12.54.57c-.43,6.28-.57,14.56-.43,21.12Z"/><polygon class="cls-2" points="498.23 217 479.51 217 487.91 232.32 500.49 255.3 519.22 255.3 498.23 217 498.23 217"/><polygon class="cls-2" points="327.81 76.11 327.38 76.11 425.55 255.3 444.27 255.3 346.09 76.11 327.81 76.11"/><polygon class="cls-2" points="513.18 210.11 525.36 232.33 529.41 239.73 532.79 239.73 548.13 239.73 531.9 210.11 513.18 210.11"/><polygon class="cls-2" points="297.24 168.95 295.72 166.18 259.48 100.03 259.48 144.82 259.48 213.56 259.48 282.31 327.81 282.31 327.81 213.56 327.81 168.95 319.11 168.95 300.38 168.95 297.24 168.95"/><polygon class="cls-2" points="308.61 76.11 298.23 57.14 279.5 57.14 289.89 76.11 374.06 229.74 392.79 229.74 327.81 111.14 308.61 76.11"/><polygon class="cls-2" points="300.38 163.63 319.1 163.63 260.76 57.15 259.48 57.15 242.05 57.15 265.39 99.75 300.38 163.63"/><path class="cls-2" d="M532.79,245.05h-6.52l-1.52-2.76-16.22-29.62-4.32-7.88h28.58V76.07h0V7.67H259.48V51.82h4.43l1.52,2.77,58.34,106.48,4,7.39V156.38L285.23,78.67l-10.39-19-4.31-7.88h30.84l1.51,2.77,10.39,19,14.54,26.53V88l-5.1-9.3-4.31-7.88h30.84l1.51,2.76,1.38,2.52H464.46V212.72l21.92,40,4.32,7.88H464.46V282.3h68.33Zm-13.57,15.57H497.35l-1.52-2.77-21-38.29-4.31-7.88h30.83l1.52,2.76,21,38.3,4.32,7.88Z"/><polygon class="cls-2" points="464.46 255.3 481.72 255.3 464.46 223.79 391 89.72 372.28 89.72 463 255.3 464.46 255.3"/></svg>